<svg id="Capa_1" enable-background="new 0 0 512 512" height="512" viewBox="0 0 512 512" width="512" xmlns="http://www.w3.org/2000/svg"><g><path d="m226 254.998h60v-60h-60zm15-45h30v30h-30z"/><path d="m151 90v60h60v-60zm45 45h-30v-30h30z"/><path d="m361 359.998v-60h-60v60zm-45-45h30v30h-30z"/><path d="m211 299.998h-60v60h60zm-15 45h-30v-30h30z"/><path d="m286 90h-60v60h60zm-15 45h-30v-30h30z"/><path d="m301 150h60v-60h-60zm15-45h30v30h-30z"/><path d="m301 194.998v60h60v-60zm45 45h-30v-30h30z"/><path d="m286 299.998h-60v60h60zm-15 45h-30v-30h30z"/><path d="m211 254.998v-60h-60v60zm-45-45h30v30h-30z"/><path d="m121 90h15v-45h112.5v-15h-135v-15h284.999v15h-134.999v15h112.499v119.999h-112.499v15h112.499v89.999h-112.499v15h112.499v104.999h15v-104.999h15v-15h-15v-89.999h15v-15h-15v-119.999h22.5v-45h-314.999v45h22.5z"/><path d="m375.999 404.996h15v77.004h-15z"/><path d="m151 437h15v15h-15z"/><path d="m151 467h15v15h-15z"/><path d="m278.5 419.997h15v15h-15z"/><path d="m458.148 269.06h15v15h-15z"/><path d="m346 60h15v15h-15z"/><path d="m218.5 467h15v15h-15z"/><path d="m45 308.062h15v15h-15z"/><path d="m286 60h45v15h-45z"/><path d="m473.148 394.773c22.302-6.178 38.852-39.572 38.852-81.087 0-11.42-1.254-22.46-3.726-32.815l-14.59 3.483c2.2 9.214 3.315 19.083 3.315 29.332 0 32.939-11.457 57.547-23.852 64.866v-25.488h-15v25.488c-12.395-7.319-23.852-31.927-23.852-64.866 0-39.558 16.522-67.125 31.352-67.125 8.951 0 17.962 9.381 24.104 25.096l13.971-5.461c-8.604-22.011-22.48-34.635-38.074-34.635-25.991 0-46.352 36.073-46.352 82.125 0 41.516 16.55 74.909 38.852 81.088v33.03l-19.691-13.437-8.455 12.391 28.146 19.206v51.036h-194.648v-92.002h44.999v77.002h15v-77.003h15v-15h-164.998v15h15v77.003h15v-77.003h45v92.003h-188.501v-61.981c25.407-3.651 45-25.554 45-51.956 0-15.217-6.417-29.306-17.524-39.174 6.449-7.938 10.025-17.871 10.025-28.326 0-24.813-20.187-45-45-45s-45 20.187-45 45c0 10.455 3.576 20.388 10.025 28.326-11.108 9.868-17.526 23.957-17.526 39.174 0 10.994 3.364 21.523 9.729 30.45l12.213-8.708c-4.542-6.37-6.942-13.888-6.942-21.742 0-13.115 6.677-25.06 17.862-31.951l9.014-5.554-8.23-6.661c-7.084-5.733-11.146-14.238-11.146-23.334 0-16.542 13.458-30 30-30s30 13.458 30 30c0 9.096-4.063 17.601-11.146 23.334l-8.23 6.661 9.014 5.554c11.185 6.89 17.862 18.835 17.862 31.951 0 18.11-12.904 33.261-30 36.745v-21.745h-15v21.725c-5.102-1.033-9.937-3.098-14.241-6.167l-8.708 12.214c6.872 4.9 14.697 8.013 22.949 9.19v61.975h-45v15h512v-15h-38.852z"/><path d="m248.5 269.998h-112.5v-89.999h112.5v-15h-112.5v-59.999h-15v59.999h-15v15h15v89.999h-15v15h15v197.002h15v-197.002h112.5z"/></g></svg>