<svg id="Capa_1" enable-background="new 0 0 511.999 511.999" height="512" viewBox="0 0 511.999 511.999" width="512" xmlns="http://www.w3.org/2000/svg"><g><path d="m511.999 393.387v-289.44l-90.333-90.333-82.834 82.833-30.81-30.81-10.607 10.605 33.917 33.917v21.214l-75.333-75.333-75.333 75.333v-21.214l75.333-75.333 30.811 30.811 10.605-10.607-41.416-41.416-82.833 82.833-82.833-82.834-90.333 90.333v96.237h15v-47.597l75.333-75.334 30.81 30.81 10.606-10.606-41.416-41.416-75.333 75.334v-21.215l75.333-75.333 75.333 75.332v21.215l-23.311-23.311-10.606 10.606 33.917 33.917v120.801h-150.666v-58.203h-15v283.202h511.999v-90h-15v75h-15v-30h-30.333v-75h-60v75h-30.334v30h-15v-164.998h67.833v-15h-67.833v-15h150.667v15h-67.834v15h67.834v75zm-391.666 74.999h15.334v15h-15.334zm-15 15h-30v-90h30zm-45 0h-15.334v-15h15.334zm225.666-15h15.334v15h-15.334zm-15 15h-30v-90h30zm-45 0h-15.333v-15h15.333zm241-15v15h-15.333v-15zm-30.333-75v90h-30v-90zm-60.334 75h15.334v15h-15.334zm-45 15h-14.999v-30h-30.334v-75h-60v75h-30.333v30h-15v-75h-15v75h-14.999v-30h-30.334v-75h-60v75h-30.334v30h-14.999v-164.999h67.833v-15h-67.833v-15h150.666v15h-67.833v15h67.833v75h15v-75h150.666zm15-209.999v-58.203h-15v58.203h-67.833v15h67.833v15h-150.666v-15h67.833v-15h-67.833v-120.8l75.333-75.334 75.333 75.334v47.597h15v-47.598l75.334-75.333 30.81 30.81 10.607-10.606-41.417-41.417-75.334 75.333v-21.215l75.334-75.332 75.333 75.333v21.214l-23.31-23.311-10.607 10.606 33.917 33.917v120.801h-150.667z"/><path d="m285.999 148.939h-60v90h-15v15h90v-15h-15zm-15 90h-30v-30h30zm0-45h-30v-30h30z"/><path d="m60.333 148.939v90h-15v15h90v-15h-15v-90zm45 90h-30v-30h30zm0-45h-30v-30h30z"/><path d="m451.666 148.939h-60v90h-15v15h90v-15h-15zm-15 90h-30v-30h30zm0-45h-30v-30h30z"/><path d="m466.665 156.439h15v15h-15z"/><path d="m135.333 186.439h15v15h-15z"/><path d="m135.333 156.439h15v15h-15z"/><path d="m301.333 333.387h15v15h-15z"/><path d="m135.667 333.387h15v15h-15z"/><path d="m300.999 186.439h15v15h-15z"/><path d="m466.999 333.387h15v15h-15z"/><path d="m300.999 156.439h15v15h-15z"/><path d="m466.665 186.439h15v15h-15z"/><path d="m225.999 348.386h22.5v15h-22.5z"/><path d="m391.666 348.386h22.5v15h-22.5z"/><path d="m429.166 348.386h22.5v15h-22.5z"/><path d="m60.333 348.386h22.5v15h-22.5z"/><path d="m263.5 348.386h22.5v15h-22.5z"/><path d="m97.833 348.386h22.5v15h-22.5z"/></g></svg>