<?xml version="1.0" encoding="UTF-8" standalone="no"?>
<svg
   xmlns:dc="http://purl.org/dc/elements/1.1/"
   xmlns:cc="http://creativecommons.org/ns#"
   xmlns:rdf="http://www.w3.org/1999/02/22-rdf-syntax-ns#"
   xmlns:svg="http://www.w3.org/2000/svg"
   xmlns="http://www.w3.org/2000/svg"
   xmlns:sodipodi="http://sodipodi.sourceforge.net/DTD/sodipodi-0.dtd"
   xmlns:inkscape="http://www.inkscape.org/namespaces/inkscape"
   version="1.1"
   id="svg2"
   xml:space="preserve"
   width="868.85333"
   height="147.77333"
   viewBox="0 0 868.85333 147.77333"
   sodipodi:docname="RocketMortgage-Horizontal.eps"><metadata
     id="metadata8"><rdf:RDF><cc:Work
         rdf:about=""><dc:format>image/svg+xml</dc:format><dc:type
           rdf:resource="http://purl.org/dc/dcmitype/StillImage" /></cc:Work></rdf:RDF></metadata><defs
     id="defs6" /><sodipodi:namedview
     pagecolor="#ffffff"
     bordercolor="#666666"
     borderopacity="1"
     objecttolerance="10"
     gridtolerance="10"
     guidetolerance="10"
     inkscape:pageopacity="0"
     inkscape:pageshadow="2"
     inkscape:window-width="640"
     inkscape:window-height="480"
     id="namedview4" /><g
     id="g10"
     inkscape:groupmode="layer"
     inkscape:label="ink_ext_XXXXXX"
     transform="matrix(1.3333333,0,0,-1.3333333,0,147.77333)"><g
       id="g12"
       transform="scale(0.1)"><path
         d="m 1784.71,188.859 c 0,44.493 -27.91,78.856 -72.41,78.856 -43.26,0 -77.64,-32.754 -77.64,-78.438 0,-44.89 33.17,-79.273 76.83,-79.273 43.28,0 73.22,32.75 73.22,78.855 z m 28.7,0.418 c 0,-61.07 -40.04,-105.9684 -99.48,-105.9684 -28.32,0 -60.26,13.7617 -76.84,42.8634 V 87.3594 h -28.31 V 391.465 h 28.31 v -139.52 c 17.39,28.309 48.93,42.473 79.27,42.473 57.01,0 97.05,-44.496 97.05,-105.141"
         style="fill:#100f0d;fill-opacity:1;fill-rule:nonzero;stroke:none"
         id="path14" /><path
         d="M 2024.1,290.363 1938.77,79.2813 C 1916.92,22.25 1892.26,0 1855.05,0 h -2.42 l -5.67,27.5117 h 3.63 c 24.68,0 45.32,15.7696 63.51,62.2774 l 2.82,6.8711 -87.34,193.7028 h 31.13 l 70.77,-159.328 62.29,159.328 h 30.33"
         style="fill:#100f0d;fill-opacity:1;fill-rule:nonzero;stroke:none"
         id="path16" /><path
         d="m 2356.88,130.629 -49.32,49.332 h 35.17 l 33.58,-32.75 c 20.61,21.434 33.15,50.945 33.15,83.719 0,66.328 -50.95,118.886 -114.04,118.886 -62.69,0 -114.03,-52.558 -114.03,-118.886 0,-65.926 51.34,-118.496 114.03,-118.496 22.65,0 43.68,6.863 61.46,18.195 z m 48.13,-48.1173 -26.68,26.6793 c -23.46,-16.1715 -52.18,-25.8824 -82.91,-25.8824 -79.67,0 -145.6,63.9024 -145.6,147.6214 0,83.711 65.93,147.605 145.6,147.605 80.07,0 145.59,-63.894 145.59,-147.203 0,-41.652 -16.6,-78.859 -42.88,-105.559 l 44.09,-43.2613 h -37.21"
         style="fill:#100f0d;fill-opacity:1;fill-rule:nonzero;stroke:none"
         id="path18" /><path
         d="M 2666.63,290.363 V 87.3594 h -28.3 V 120.93 c -12.93,-22.2503 -37.21,-37.6214 -69.96,-37.6214 -48.13,0 -78.05,27.5114 -78.05,84.1254 v 122.929 h 28.31 V 173.508 c 0,-42.07 19.81,-64.715 54.59,-64.715 37.62,0 65.11,27.5 65.11,65.926 v 115.644 h 28.3"
         style="fill:#100f0d;fill-opacity:1;fill-rule:nonzero;stroke:none"
         id="path20" /><path
         d="m 2729.71,290.363 h 28.3 V 87.3594 h -28.3 z m -6.88,65.93 c 0,12.125 9.3,21.434 21.44,21.434 12.13,0 21.42,-9.309 21.42,-21.434 0,-12.141 -9.29,-21.438 -21.42,-21.438 -12.14,0 -21.44,9.297 -21.44,21.438"
         style="fill:#100f0d;fill-opacity:1;fill-rule:nonzero;stroke:none"
         id="path22" /><path
         d="m 2810.99,188.469 c 0,62.683 45.29,105.949 105.94,105.949 26.7,0 47.72,-8.898 65.12,-21.438 l -13.35,-23.855 c -12.14,9.695 -29.52,18.59 -50.95,18.59 -44.08,0 -77.64,-31.543 -77.64,-78.438 0,-47.734 33.56,-79.273 75.61,-79.273 26.28,0 42.47,9.293 56.61,20.223 l 12.14,-22.645 c -18.19,-14.1601 -40.04,-24.2734 -70.36,-24.2734 -57.83,0 -103.12,42.4644 -103.12,105.1604"
         style="fill:#100f0d;fill-opacity:1;fill-rule:nonzero;stroke:none"
         id="path24" /><path
         d="m 3030.96,391.465 h 28.31 V 198.156 l 95.44,92.207 h 38.01 L 3089.6,194.523 3196.36,87.3594 h -38.81 L 3059.27,188.047 V 87.3594 h -28.31 V 391.465"
         style="fill:#100f0d;fill-opacity:1;fill-rule:nonzero;stroke:none"
         id="path26" /><path
         d="m 3380.75,203.02 c -4.44,41.66 -29.51,66.328 -65.92,66.328 -35.99,0 -67.54,-23.86 -71.57,-66.328 z m 30.33,-22.637 h -167.82 c 3.23,-43.281 31.12,-70.774 72.38,-70.774 31.55,0 50.95,14.145 64.71,27.903 l 18.99,-16.582 c -15.35,-17.399 -40.42,-37.2112 -83.7,-37.2112 -63.08,0 -101.5,46.9102 -101.5,105.1402 0,60.266 42.86,105.559 100.29,105.559 57.02,0 96.65,-43.266 96.65,-110.805 v -3.23"
         style="fill:#100f0d;fill-opacity:1;fill-rule:nonzero;stroke:none"
         id="path28" /><path
         d="M 3637.95,209.492 V 87.3594 h -28.32 V 203.84 c 0,40.418 -20.63,64.695 -56.61,64.695 -36.4,0 -62.7,-27.5 -62.7,-65.117 V 87.3594 h -28.3 V 290.363 h 28.3 v -31.945 c 12.95,22.648 37.21,36 69.56,36 48.14,0 78.07,-29.125 78.07,-84.926"
         style="fill:#100f0d;fill-opacity:1;fill-rule:nonzero;stroke:none"
         id="path30" /><path
         d="M 3970.72,115.266 V 87.3594 H 3812.2 V 374.484 h 30.33 V 115.266 h 128.19"
         style="fill:#100f0d;fill-opacity:1;fill-rule:nonzero;stroke:none"
         id="path32" /><path
         d="m 4174.94,188.859 c 0,46.922 -31.14,78.465 -75.63,78.465 -44.08,0 -75.62,-31.941 -75.62,-78.047 0,-47.312 32.35,-78.875 75.62,-78.875 44.89,0 75.63,31.961 75.63,78.457 z m -180.37,0 c 0,61.875 44.09,105.559 104.74,105.559 61.47,0 104.75,-43.684 104.75,-105.559 0,-61.875 -43.28,-105.5504 -104.75,-105.5504 -60.65,0 -104.74,43.6754 -104.74,105.5504"
         style="fill:#100f0d;fill-opacity:1;fill-rule:nonzero;stroke:none"
         id="path34" /><path
         d="m 4422.42,189.277 c 0,44.875 -32.75,78.438 -76.43,78.438 -42.87,0 -73.2,-31.934 -73.2,-79.246 0,-46.504 29.12,-78.465 72.79,-78.465 44.09,0 76.84,34.383 76.84,79.273 z m 26.28,101.086 V 86.5391 h -28.3 v 40.0549 c -17.8,-31.1526 -46.91,-43.2854 -78.46,-43.2854 -57.82,0 -98.27,44.0934 -98.27,105.1604 0,61.867 41.26,105.949 98.27,105.949 32.36,0 62.29,-13.75 78.46,-42.863 v 38.808 h 28.3"
         style="fill:#100f0d;fill-opacity:1;fill-rule:nonzero;stroke:none"
         id="path36" /><path
         d="M 4682.84,209.492 V 87.3594 h -28.33 V 203.84 c 0,40.418 -20.61,64.695 -56.61,64.695 -36.39,0 -62.69,-27.5 -62.69,-65.117 V 87.3594 h -28.3 V 290.363 h 28.3 v -31.945 c 12.95,22.648 37.21,36 69.56,36 48.13,0 78.07,-29.125 78.07,-84.926"
         style="fill:#100f0d;fill-opacity:1;fill-rule:nonzero;stroke:none"
         id="path38" /><path
         d="m 4721.64,112.844 18.19,19.406 c 14.56,-13.742 32.36,-24.27 60.27,-24.27 24.66,0 42.86,12.137 42.86,33.172 0,21.828 -17.39,28.703 -50.15,38.809 -31.15,9.316 -61.87,21.848 -61.87,57.844 0,34.363 28.3,56.613 68.34,56.613 33.15,0 54.19,-12.141 67.54,-25.883 l -17.4,-19.012 c -12.13,11.329 -27.9,20.227 -50.14,20.227 -24.67,0 -40.04,-11.73 -40.04,-30.734 0,-20.223 20.22,-26.7 48.12,-35.598 34.39,-10.914 64.31,-22.645 64.31,-61.453 0,-35.195 -29.52,-58.6564 -71.57,-58.6564 -36,0 -59.46,10.9219 -78.46,29.5354"
         style="fill:#100f0d;fill-opacity:1;fill-rule:nonzero;stroke:none"
         id="path40" /><path
         d="m 1908.53,851.16 213.32,-273.68 h -152.87 l -195.4,255.567 V 577.48 H 1645.3 v 522.04 h 128.28 V 866.324 l 188.67,233.196 h 152.13 L 1908.53,851.16"
         style="fill:#100f0d;fill-opacity:1;fill-rule:nonzero;stroke:none"
         id="path42" /><path
         d="m 2307.54,684.871 h 248.33 V 577.48 h -376.6 v 522.04 h 364.66 V 992.125 h -236.39 v -95.453 h 213.29 V 792.258 H 2307.54 V 684.871"
         style="fill:#100f0d;fill-opacity:1;fill-rule:nonzero;stroke:none"
         id="path44" /><path
         d="M 2608.05,1099.52 V 992.266 h 159.03 V 577.477 h 127.9 v 414.789 h 158.31 v 107.254 h -445.24"
         style="fill:#100f0d;fill-opacity:1;fill-rule:nonzero;stroke:none"
         id="path46" /><path
         d="M 2608.06,1099.52 V 992.266 h 159.02 V 577.477 h 127.9 v 414.789 h 158.29 v 107.254 h -445.21"
         style="fill:#100f0d;fill-opacity:1;fill-rule:nonzero;stroke:none"
         id="path48" /><path
         d="m 298.301,928.73 c 0,38.778 -30.578,65.614 -75.324,65.614 H 129.004 V 862.363 h 93.973 c 45.48,0 75.324,26.836 75.324,66.367 z M 305.77,778.082 462.371,577.48 H 315.457 L 128.281,829.039 V 577.48 H 0 v 522.04 h 234.902 c 111.883,0 190.184,-69.38 190.184,-169.297 0,-70.836 -45.508,-134.989 -119.316,-152.141"
         style="fill:#100f0d;fill-opacity:1;fill-rule:nonzero;stroke:none"
         id="path50" /><path
         d="m 772.48,995.895 c 94.102,0 167.637,-71.961 167.637,-170.915 0,-78.464 -38.664,-125.058 -90.918,-160.417 l 71.649,-95.864 c 89.312,60.805 145.252,145.274 145.252,256.281 0,163.817 -130.135,283.32 -293.62,283.32 -163.488,0 -293.625,-119.503 -293.625,-283.32 0,-111.007 55.95,-195.476 145.266,-256.281 l 71.641,95.864 c -52.258,35.359 -90.91,81.953 -90.91,160.417 0,98.954 73.527,170.915 167.628,170.915"
         style="fill:#c91c2e;fill-opacity:1;fill-rule:nonzero;stroke:none"
         id="path52" /><path
         d="m 1516.54,721.984 67.33,-91.461 c -48.73,-43.445 -109.42,-61.824 -183.63,-61.824 -146.88,0 -273.53,107.188 -273.53,270.547 0,160.399 125.89,269.054 273.53,269.054 71.22,0 134.9,-18.35 182.86,-56.55 l -69.55,-95.207 c -28.5,22.488 -61.59,39.352 -112.54,39.352 -80.95,0 -146.15,-64.442 -146.15,-158.875 0,-92.942 65.2,-155.887 148.41,-155.887 48.69,0 84.04,18.359 113.27,40.851"
         style="fill:#100f0d;fill-opacity:1;fill-rule:nonzero;stroke:none"
         id="path54" /><path
         d="m 3262.08,1099.52 h 83.82 l 168.36,-243.356 169.1,243.356 h 86.02 V 577.516 h -74.25 V 991.453 L 3526.02,748.832 H 3502.5 L 3336.34,991.453 V 577.516 h -74.26 v 522.004"
         style="fill:#100f0d;fill-opacity:1;fill-rule:nonzero;stroke:none"
         id="path56" /><path
         d="m 4151.76,762.785 c 0,75.731 -50.74,127.207 -123.52,127.207 -72.05,0 -122.78,-51.476 -122.78,-127.207 0,-76.461 52.21,-127.187 122.78,-127.187 73.53,0 123.52,52.203 123.52,127.187 z m -318.35,0 c 0,111.758 81.61,192.637 194.83,192.637 115.43,0 194.84,-80.879 194.84,-192.637 0,-112.484 -79.41,-192.621 -194.84,-192.621 -113.22,0 -194.83,80.137 -194.83,192.621"
         style="fill:#100f0d;fill-opacity:1;fill-rule:nonzero;stroke:none"
         id="path58" /><path
         d="m 4488.53,948.074 v -63.976 h -28.67 c -70.57,0 -102.19,-51.461 -102.19,-126.446 V 577.516 h -69.12 v 370.558 h 69.12 v -65.437 c 23.52,47.785 61.75,65.437 102.92,65.437 h 27.94"
         style="fill:#100f0d;fill-opacity:1;fill-rule:nonzero;stroke:none"
         id="path60" /><path
         d="m 4597.38,718.68 v 166.886 h -63.97 v 62.508 h 63.97 v 106.606 l 69.85,22.78 V 948.074 h 104.39 V 885.566 H 4667.23 V 728.23 c 0,-62.48 33.08,-88.214 92.63,-88.214 h 6.62 l -11.03,-68.379 h -2.94 c -104.41,0 -155.13,45.582 -155.13,147.043"
         style="fill:#100f0d;fill-opacity:1;fill-rule:nonzero;stroke:none"
         id="path62" /><path
         d="m 5128.24,767.211 c 0,66.902 -50.73,126.457 -122.06,126.457 -73.52,0 -122.05,-55.879 -122.05,-127.934 0,-73.531 50.74,-125.718 122.79,-125.718 72.79,0 121.32,55.136 121.32,127.195 z m 67.63,180.863 V 605.445 c 0,-122.035 -74.26,-188.218 -191.89,-188.218 -83.81,0 -136.75,30.878 -173.51,80.156 l 56.61,36.027 c 20.58,-26.476 57.34,-53.683 119.84,-53.683 74.99,0 119.1,43.378 119.1,120.586 v 46.312 c -28.66,-47.059 -75.72,-69.109 -133.81,-69.109 -104.4,0 -179.39,77.933 -179.39,187.492 0,108.808 72.78,190.414 179.39,190.414 59.55,0 103.68,-25 133.81,-69.106 v 61.758 h 69.85"
         style="fill:#100f0d;fill-opacity:1;fill-rule:nonzero;stroke:none"
         id="path64" /><path
         d="m 5575.27,762.785 c 0,73.531 -53.66,127.934 -124.99,127.934 -70.57,0 -119.83,-51.461 -119.83,-128.66 0,-75.735 47.78,-127.188 119.11,-127.188 72.05,0 125.71,55.133 125.71,127.914 z m 66.17,185.289 V 576.789 h -69.85 v 65.43 c -29.4,-50.727 -77.93,-72.055 -134.53,-72.055 -104.41,0 -178.67,80.137 -178.67,191.895 0,113.23 75.01,193.363 178.67,193.363 57.34,0 108.08,-23.527 134.53,-70.582 v 63.234 h 69.85"
         style="fill:#100f0d;fill-opacity:1;fill-rule:nonzero;stroke:none"
         id="path66" /><path
         d="m 6019.41,767.211 c 0,66.902 -50.73,126.457 -122.06,126.457 -73.51,0 -122.04,-55.879 -122.04,-127.934 0,-73.531 50.73,-125.718 122.79,-125.718 72.78,0 121.31,55.136 121.31,127.195 z m 67.63,180.863 V 605.445 c 0,-122.035 -74.26,-188.218 -191.89,-188.218 -83.81,0 -136.76,30.878 -173.51,80.156 l 56.6,36.027 c 20.6,-26.476 57.36,-53.683 119.86,-53.683 74.99,0 119.09,43.378 119.09,120.586 v 46.312 c -28.67,-47.059 -75.74,-69.109 -133.81,-69.109 -104.39,0 -179.4,77.933 -179.4,187.492 0,108.808 72.81,190.414 179.4,190.414 59.55,0 103.68,-25 133.81,-69.106 v 61.758 h 69.85"
         style="fill:#100f0d;fill-opacity:1;fill-rule:nonzero;stroke:none"
         id="path68" /><path
         d="m 6442.93,793.664 c -7.34,65.449 -47.05,104.41 -105.88,104.41 -57.35,0 -105.86,-38.234 -114.69,-104.41 z m 73.51,-50.726 h -294.82 c 6.62,-69.114 52.2,-111.747 117.64,-111.747 52.19,0 84.55,22.786 108.07,46.313 l 47.79,-36.027 c -29.41,-35.286 -76.46,-70.582 -156.6,-70.582 -113.95,0 -187.49,83.082 -187.49,191.164 0,111.007 79.41,193.363 185.3,193.363 107.33,0 180.11,-79.406 180.11,-202.914 v -9.57"
         style="fill:#100f0d;fill-opacity:1;fill-rule:nonzero;stroke:none"
         id="path70" /></g></g></svg>
