<svg id="Capa_1" enable-background="new 0 0 512 512" height="512" viewBox="0 0 512 512" width="512" xmlns="http://www.w3.org/2000/svg"><g><path d="m412.397 94.14c-1.613-3.649-5.133-6.007-8.964-6.007h-122.503c-8.038-3.71-16.629-5.68-25.351-5.685-.012 0-.021 0-.032 0-8.877 0-17.48 1.965-25.5 5.685h-121.48c-3.83 0-7.348 2.356-8.963 6.002-4.434 10.005-11.125 18.063-19.348 23.304-2.979 1.896-4.757 5.205-4.757 8.851v84.32c0 3.646 1.778 6.954 4.754 8.85 8.225 5.241 14.916 13.3 19.35 23.303 1.615 3.647 5.134 6.005 8.963 6.005h121.733c7.871 3.655 16.403 5.679 25.32 5.684h.032c8.921 0 17.512-2.007 25.455-5.684h122.325c3.831 0 7.35-2.358 8.962-6.003 4.436-10.005 11.127-18.064 19.351-23.305 2.978-1.897 4.755-5.205 4.755-8.85v-84.32c0-3.645-1.777-6.952-4.755-8.85-8.222-5.241-14.914-13.3-19.347-23.3zm-321.897 114.129v-79.641c8.903-6.238 16.247-14.968 21.451-25.496h97.376c-1.543 1.608-3.047 3.285-4.488 5.066-13.07 16.151-20.264 37.537-20.256 60.218.008 26.126 9.699 49.557 24.938 65.35h-97.569c-5.204-10.527-12.548-19.257-21.452-25.497zm331 0c-8.902 6.237-16.246 14.966-21.451 25.497h-98.125c10.877-11.295 18.953-26.609 22.603-44.429.831-4.058-1.785-8.021-5.843-8.853-4.057-.832-8.021 1.785-8.853 5.843-6.407 31.281-28.685 53.122-54.18 53.122-.008 0-.016 0-.023 0-30.892-.017-56.034-31.884-56.046-71.037-.006-19.256 6.002-37.289 16.917-50.778 10.535-13.019 24.4-20.187 39.049-20.187h.024c25.891.015 48.872 23.242 54.643 55.232.735 4.076 4.639 6.783 8.713 6.049 4.076-.735 6.784-4.636 6.049-8.713-3.277-18.164-11.499-34.75-23.186-46.884h98.258c5.204 10.528 12.548 19.259 21.451 25.496z"/><path d="m372.5 175.456c13.145 0 23.838-10.693 23.838-23.838s-10.693-23.838-23.838-23.838-23.838 10.693-23.838 23.838 10.693 23.838 23.838 23.838zm0-32.676c4.873 0 8.838 3.965 8.838 8.838s-3.965 8.838-8.838 8.838-8.838-3.965-8.838-8.838 3.965-8.838 8.838-8.838z"/><path d="m140.859 175.456c13.144 0 23.838-10.693 23.838-23.838s-10.694-23.838-23.838-23.838c-13.145 0-23.838 10.693-23.838 23.838s10.694 23.838 23.838 23.838zm0-32.676c4.873 0 8.838 3.965 8.838 8.838s-3.965 8.838-8.838 8.838c-4.874 0-8.838-3.965-8.838-8.838s3.965-8.838 8.838-8.838z"/><path d="m158.359 185.223h-35c-4.142 0-7.5 3.357-7.5 7.5s3.358 7.5 7.5 7.5h35c4.142 0 7.5-3.357 7.5-7.5s-3.358-7.5-7.5-7.5z"/><path d="m390 185.223h-35c-4.143 0-7.5 3.357-7.5 7.5s3.357 7.5 7.5 7.5h35c4.143 0 7.5-3.357 7.5-7.5s-3.357-7.5-7.5-7.5z"/><path d="m264.356 161.626c-2.145-.757-4.087-1.335-5.801-1.845-4.759-1.416-6.763-2.077-8.583-4.244-.679-.81-1.162-2.624-.709-4.854.239-1.179 1.111-4.081 4.048-5.583 4.163-2.124 8.651 1.296 9.508 2.004 3.192 2.634 7.92 2.186 10.559-1.01 2.637-3.194 2.185-7.921-1.01-10.559-2.572-2.124-5.827-3.989-9.445-5.092v-2.798c0-4.143-3.358-7.5-7.5-7.5s-7.5 3.357-7.5 7.5v3.443c-5.89 2.388-11.822 8.823-13.361 16.615-1.309 6.458.157 12.992 3.921 17.477 4.787 5.704 10.383 7.369 15.795 8.979 1.62.482 3.296.98 5.083 1.612 5.497 1.941 5.662 6.136 5.271 8.464-.659 3.92-3.96 8.155-9.654 8.193-6.02.05-7.746-.23-12.288-3.199-3.467-2.264-8.114-1.292-10.381 2.175-2.266 3.468-1.292 8.115 2.175 10.382 5.107 3.338 8.917 4.766 13.438 5.324v3.358c0 4.143 3.358 7.5 7.5 7.5s7.5-3.357 7.5-7.5v-4.323c9.236-3.091 15.138-11.31 16.502-19.425 1.877-11.164-4.179-21.248-15.068-25.094z"/><path d="m512 225.716c0-14.693-8.648-28.103-22.034-34.162l-23.466-10.623v-39.645c0-4.143-3.357-7.5-7.5-7.5s-7.5 3.357-7.5 7.5v101.723l-53.856 25.334h-283.237l-53.907-25.346v-174.864h391v37.313c0 4.143 3.357 7.5 7.5 7.5s7.5-3.357 7.5-7.5v-40.729c0-6.388-5.197-11.584-11.585-11.584h-397.831c-6.388 0-11.584 5.196-11.584 11.584v116.213l-23.465 10.623c-13.386 6.059-22.035 19.468-22.035 34.162v205.65c.016 14.538 11.885 27.282 27.5 27.5h320.984c4.143 0 7.5-3.357 7.5-7.5s-3.357-7.5-7.5-7.5h-315.07l71.023-44.872c3.502-2.213 4.547-6.845 2.334-10.347-2.211-3.501-6.844-4.546-10.346-2.335l-80.105 50.611c-.837-1.677-1.32-3.559-1.32-5.557v-193.185l181.107 85.154-69.945 44.191c-3.502 2.213-4.547 6.845-2.334 10.347 2.212 3.502 6.844 4.548 10.346 2.335l93.742-59.226c17.058-10.776 39.092-10.763 56.136.033l193.94 122.852h-94.507c-4.143 0-7.5 3.357-7.5 7.5s3.357 7.5 7.5 7.5h101.015c14.244.191 27.429-12.03 27.5-27.5 0-.624 0-205.013 0-205.65zm-196.153 97.682 181.153-85.216v193.184c0 2.116-.532 4.108-1.464 5.857zm150.653-126.003 17.28 7.823c6.813 3.085 11.567 9.348 12.856 16.559l-30.136 14.176zm-438.279 7.823 17.279-7.823v38.55l-30.137-14.17c1.29-7.21 6.044-13.473 12.858-16.557zm191.683 103.081-8.756 5.532-64.84-30.487h219.448l-64.926 30.542-8.752-5.544c-21.913-13.882-50.243-13.898-72.174-.043z"/></g></svg>