<svg height="512pt" viewBox="0 0 512 512" width="512pt" xmlns="http://www.w3.org/2000/svg"><path d="m469.070312 183.074219c1.859376-1.859375 2.929688-4.441407 2.929688-7.070313 0-2.640625-1.070312-5.210937-2.929688-7.070312-1.859374-1.871094-4.429687-2.929688-7.070312-2.929688s-5.210938 1.058594-7.070312 2.929688c-1.859376 1.851562-2.929688 4.429687-2.929688 7.070312 0 2.628906 1.070312 5.210938 2.929688 7.070313 1.859374 1.859375 4.429687 2.929687 7.070312 2.929687s5.210938-1.070312 7.070312-2.929687zm0 0"/><path d="m482 44h-34.253906v-10c0-18.746094-15.253906-34-34-34-18.75 0-34 15.253906-34 34v10h-89.875v-10c0-18.746094-15.25-34-34-34-18.746094 0-34 15.253906-34 34v10h-89.871094v-10c0-18.746094-15.253906-34-34-34s-34 15.253906-34 34v10h-34c-16.542969 0-30 13.457031-30 30v407.945312c0 16.542969 13.457031 30 30 30h186.128906c5.519532 0 10-4.476562 10-10 0-5.519531-4.480468-10-10-10h-186.128906c-5.515625 0-10-4.484374-10-10v-295.945312h402c5.523438 0 10-4.476562 10-10s-4.476562-10-10-10h-402v-92c0-5.515625 4.484375-10 10-10h34v34.167969c0 18.746093 15.253906 34 34 34s34-15.253907 34-34c0-5.523438-4.476562-10-10-10s-10 4.476562-10 10c0 7.71875-6.28125 14-14 14s-14-6.28125-14-14v-34.167969h137.871094v34.167969c0 18.746093 15.253906 34 34 34 18.75 0 34-15.253907 34-34 0-5.523438-4.476563-10-10-10-5.519532 0-10 4.476562-10 10 0 7.71875-6.277344 14-14 14-7.71875 0-14-6.28125-14-14v-34.167969h137.875v34.167969c0 18.746093 15.25 34 34 34 18.746094 0 34-15.253907 34-34 0-5.523438-4.476563-10-10-10-5.523438 0-10 4.476562-10 10 0 7.71875-6.28125 14-14 14s-14-6.28125-14-14v-34.167969h82.253906c5.515625 0 10 4.484375 10 10v407.945312c0 5.515626-4.484375 10-10 10h-185.871094c-5.523437 0-10 4.480469-10 10 0 5.523438 4.476563 10 10 10h185.871094c16.542969 0 30-13.457031 30-30v-407.945312c0-16.542969-13.457031-30-30-30zm-398-10c0-7.71875 6.28125-14 14-14s14 6.28125 14 14v10h-28zm157.871094 0c0-7.71875 6.28125-14 14-14 7.722656 0 14 6.28125 14 14v10h-28zm157.875 0c0-7.71875 6.28125-14 14-14s14 6.28125 14 14v10h-28zm0 0"/><path d="m256 491.945312c-2.640625 0-5.210938 1.070313-7.070312 2.929688-1.871094 1.859375-2.929688 4.4375-2.929688 7.070312 0 2.628907 1.058594 5.207032 2.929688 7.070313 1.859374 1.867187 4.429687 2.929687 7.070312 2.929687 2.628906 0 5.199219-1.0625 7.070312-2.929687 1.859376-1.863281 2.929688-4.441406 2.929688-7.070313 0-2.632812-1.070312-5.210937-2.929688-7.070312-1.871093-1.859375-4.441406-2.929688-7.070312-2.929688zm0 0"/><path d="m360 335.949219c0-57.898438-47.101562-105-105-105s-105 47.101562-105 105c0 57.894531 47.101562 105 105 105s105-47.105469 105-105zm-190 0c0-46.871094 38.132812-85 85-85s85 38.128906 85 85c0 46.867187-38.132812 85-85 85s-85-38.132813-85-85zm0 0"/><path d="m224.085938 323.628906c1.820312 2.464844 4.746093 4.0625 8.046874 4.0625 5.519532 0 10-4.476562 10-10 0-9.949218-8.097656-18.046875-18.046874-18.046875-9.953126 0-18.046876 8.097657-18.046876 18.046875 0 5.523438 4.476563 10 10 10 3.300782 0 6.226563-1.597656 8.046876-4.0625zm0 0"/><path d="m280.550781 327.691406c3.300781 0 6.226563-1.597656 8.046875-4.0625 1.820313 2.464844 4.746094 4.0625 8.046875 4.0625 5.519531 0 10-4.476562 10-10 0-9.949218-8.097656-18.046875-18.046875-18.046875-9.953125 0-18.046875 8.097657-18.046875 18.046875 0 5.523438 4.476563 10 10 10zm0 0"/><path d="m289.640625 357.855469c0-5.523438-4.480469-10-10-10-5.523437 0-10 4.476562-10 10 0 7.332031-5.96875 13.296875-13.300781 13.296875-7.332032 0-13.296875-5.964844-13.296875-13.296875 0-5.523438-4.476563-10-10-10-5.523438 0-10 4.476562-10 10 0 18.359375 14.9375 33.296875 33.296875 33.296875s33.300781-14.9375 33.300781-33.296875zm0 0"/></svg>